<svg width="119" height="68" viewBox="0 0 119 68" fill="none" xmlns="http://www.w3.org/2000/svg">
<path d="M115.424 63.7192V60.6778H112.383V57.1018H108.982H108.651H105.254V60.6778H102.213V63.7192H99.3701H98.6322H95.7941V60.6778H92.7526V57.1018H89.3564H89.0206H85.6244V60.6778H82.5829V63.7192H79.8631H79.007H76.2871V60.6778H73.2457V57.1018H69.8495H69.5136H66.1174V60.6778H63.076V63.7192H59.5H55.924V60.6778H52.8826V57.1018H49.4816H49.1505H45.7543V60.6778H42.7128V63.7192H39.8701H39.1322H36.2941V60.6778H33.2526V57.1018H29.8564H29.5206H26.1244V60.6778H23.0829V63.7192H20.3631H19.507H16.7871V60.6778H13.7457V57.1018H10.3495H10.0136H6.61742V60.6778H3.57596V63.7192H0V67.4938H19.507H20.3631H39.1322H39.8701H59.5H79.007H79.8631H98.6322H99.3701H119V63.7192H115.424Z" fill="#343F92"/>
<path d="M115.424 53.3272V50.2857H112.383V46.7098H108.982H108.651H105.254V50.2857H102.213V53.3272H99.3701H98.6322H95.7941V50.2857H92.7526V46.7098H89.3564H89.0206H85.6244V50.2857H82.5829V53.3272H79.8631H79.007H76.2871V50.2857H73.2457V46.7098H69.8495H69.5136H66.1174V50.2857H63.076V53.3272H59.5H55.924V50.2857H52.8826V46.7098H49.4816H49.1505H45.7543V50.2857H42.7128V53.3272H39.8701H39.1322H36.2941V50.2857H33.2526V46.7098H29.8564H29.5206H26.1244V50.2857H23.0829V53.3272H20.3631H19.507H16.7871V50.2857H13.7457V46.7098H10.3495H10.0136H6.61742V50.2857H3.57596V53.3272H0V57.1018H19.507H20.3631H39.1322H39.8701H59.5H79.007H79.8631H98.6322H99.3701H119V53.3272H115.424Z" fill="#343F92"/>
<path d="M115.424 42.9352V39.8938H112.383V36.3178H108.982H108.651H105.254V39.8938H102.213V42.9352H99.3701H98.6322H95.7941V39.8938H92.7526V36.3178H89.3564H89.0206H85.6244V39.8938H82.5829V42.9352H79.8631H79.007H76.2871V39.8938H73.2457V36.3178H69.8495H69.5136H66.1174V39.8938H63.076V42.9352H59.5H55.924V39.8938H52.8826V36.3178H49.4816H49.1505H45.7543V39.8938H42.7128V42.9352H39.8701H39.1322H36.2941V39.8938H33.2526V36.3178H29.8564H29.5206H26.1244V39.8938H23.0829V42.9352H20.3631H19.507H16.7871V39.8938H13.7457V36.3178H10.3495H10.0136H6.61742V39.8938H3.57596V42.9352H0V46.7099H19.507H20.3631H39.1322H39.8701H59.5H79.007H79.8631H98.6322H99.3701H119V42.9352H115.424Z" fill="#343F92"/>
<path d="M59.5007 36.3177C69.5295 36.3177 77.6595 28.1877 77.6595 18.1589C77.6595 8.13 69.5295 0 59.5007 0C49.4718 0 41.3418 8.13 41.3418 18.1589C41.3418 28.1877 49.4718 36.3177 59.5007 36.3177Z" fill="#EF5758"/>
<path d="M115.424 32.5431V29.5017H112.383V25.9257H108.982H108.651H105.254V29.5017H102.213V32.5431H99.3701H98.6322H95.7941V29.5017H92.7526V25.9257H89.3564H89.0206H85.6244V29.5017H82.5829V32.5431H79.8631H79.007H76.2871V29.5017H73.2457V25.9257H69.8495H69.5136H66.1174V29.5017H63.076V32.5431H59.5H55.924V29.5017H52.8826V25.9257H49.4816H49.1505H45.7543V29.5017H42.7128V32.5431H39.8701H39.1322H36.2941V29.5017H33.2526V25.9257H29.8564H29.5206H26.1244V29.5017H23.0829V32.5431H20.3631H19.507H16.7871V29.5017H13.7457V25.9257H10.3495H10.0136H6.61742V29.5017H3.57596V32.5431H0V36.3178H19.507H20.3631H39.1322H39.8701H59.5H79.007H79.8631H98.6322H99.3701H119V32.5431H115.424Z" fill="#343F92"/>
</svg>
