<svg width="825" height="857" viewBox="0 0 825 857" fill="none" xmlns="http://www.w3.org/2000/svg">
<path d="M931 390C931 646.26 723.26 854 467 854C210.74 854 3 646.26 3 390C3 133.74 210.74 -74 467 -74" stroke="#ECD2C5" stroke-width="5"/>
<path fill-rule="evenodd" clip-rule="evenodd" d="M219.481 32.6086C196.999 48.1986 176.061 65.8583 156.943 85.312L360.963 284.463C372.622 271.151 386.896 259.986 403.242 251.849L404.579 254.534C388.539 262.519 374.538 273.485 363.112 286.562L386.975 309.855C395.752 300.085 406.464 291.946 418.691 286.098L419.985 288.804C379.414 308.209 356.023 353.609 366.139 399.409C377.927 452.78 430.749 486.489 484.119 474.701C511.557 468.641 533.797 451.738 547.333 429.487L549.896 431.046C543.972 440.784 536.429 449.528 527.544 456.845L551.155 480.512C563.526 470.326 573.93 458.063 581.956 444.389L584.543 445.908C576.389 459.8 565.831 472.27 553.283 482.645L769.927 699.803C786.931 683.173 802.574 665.157 816.673 645.938L793.726 626.982C792.875 626.278 792.755 625.018 793.458 624.166C794.162 623.315 795.422 623.195 796.274 623.898L819.029 642.695C870.301 571.433 900.5 483.993 900.5 389.5H905.5C905.5 631.953 708.953 828.5 466.5 828.5C224.047 828.5 27.5 631.953 27.5 389.5C27.5 147.047 224.047 -49.5 466.5 -49.5V-44.5C376.155 -44.5 292.257 -16.8944 222.782 30.3418L242.093 55.7911C242.761 56.671 242.589 57.9256 241.709 58.5933C240.829 59.261 239.574 59.0889 238.907 58.209L219.481 32.6086ZM101.311 154.896C116.916 130.656 134.868 108.069 154.847 87.4589L359.006 286.746C346.131 302.105 336.654 320.156 331.368 339.614L62.5119 230.703L61.4202 233.398C71.5942 207.014 84.2715 181.875 99.161 158.27L125.463 174.211C126.408 174.783 127.638 174.481 128.21 173.537C128.783 172.592 128.481 171.362 127.537 170.79L101.311 154.896ZM61.3869 233.484C51.911 258.074 44.6093 283.743 39.7176 310.257L67.409 316.042C68.4902 316.268 69.1836 317.328 68.9577 318.409C68.7318 319.49 67.6722 320.184 66.591 319.958L39.0098 314.195C34.731 338.654 32.5 363.816 32.5 389.5C32.5 390.669 32.5046 391.837 32.5139 393.004L327.64 393.004C325.461 375.751 326.597 358.691 330.607 342.543L61.3869 233.484ZM333.416 343.681C329.549 359.473 328.488 376.147 330.665 393.004H361.906C360.011 380.293 360.57 367.708 363.253 355.768L333.416 343.681ZM363.963 352.818C367.9 337.46 375.371 323.261 385.651 311.357L384.952 312.073L361.159 288.848C348.559 303.929 339.302 321.652 334.169 340.749L363.963 352.818ZM767.775 701.894L550.937 484.542C540.063 493.139 527.77 500.193 514.312 505.291L631.768 790.924C655.534 781.129 678.24 769.284 699.665 755.611L682.336 729.609C681.723 728.69 681.972 727.448 682.891 726.836C683.81 726.223 685.052 726.472 685.664 727.391L703.027 753.443C726.241 738.326 747.919 721.047 767.775 701.894ZM628.991 792.058L511.493 506.324C506.821 507.979 502.014 509.4 497.083 510.571C486.451 513.095 475.815 514.32 465.34 514.349L459.529 823.445C461.849 823.482 464.172 823.5 466.5 823.5C492.917 823.5 518.783 821.14 543.898 816.619L537.043 783.911C536.816 782.829 537.509 781.769 538.59 781.543C539.671 781.316 540.731 782.009 540.957 783.09L547.832 815.892C575.938 810.563 603.085 802.524 628.991 792.058ZM548.804 482.403C538.213 490.733 526.254 497.569 513.17 502.515L500.891 472.655C509.739 469.102 517.885 464.385 525.186 458.729L548.804 482.403ZM510.35 503.546L498.091 473.732C493.8 475.31 489.354 476.617 484.766 477.63C478.478 479.019 472.197 479.795 465.986 479.998L465.397 511.348C475.624 511.315 486.009 510.117 496.39 507.652C501.166 506.518 505.823 505.144 510.35 503.546ZM41.0602 475.7C35.8592 449.89 32.948 423.251 32.5477 396.004L328.052 396.004C328.636 399.935 329.393 403.873 330.328 407.811C333.116 419.554 337.323 430.59 342.724 440.78L63.7155 551.428C54.4503 528.403 47.1022 504.401 41.8687 479.618L72.3645 473.966C73.4505 473.765 74.1678 472.722 73.9665 471.636C73.7652 470.549 72.7216 469.832 71.6355 470.034L41.0602 475.7ZM64.8451 554.207L344.169 443.434C352.27 457.937 362.821 470.65 375.145 481.155L310.278 546.021L148.477 684.828C132.2 667.309 117.354 648.443 104.123 628.416L132.364 610.694C133.299 610.107 133.582 608.873 132.995 607.937C132.408 607.001 131.173 606.719 130.238 607.306L101.933 625.068C87.4972 602.772 75.0507 579.068 64.8451 554.207ZM346.983 442.318C354.923 456.433 365.238 468.804 377.273 479.026L386.694 469.606L396.251 460.049L398.818 457.482C389.688 450.139 381.786 441.204 375.581 430.977L346.983 442.318ZM345.531 439.667L374.046 428.358C369.16 419.732 365.46 410.242 363.21 400.056C362.912 398.705 362.642 397.354 362.399 396.004H331.086C331.648 399.705 332.367 403.412 333.247 407.118C336.001 418.72 340.172 429.616 345.531 439.667ZM399.99 458.411L401.061 459.481L398.372 462.17L388.815 471.727L379.591 480.951C390.471 489.786 402.675 496.905 415.742 502.027L427.906 473.896C417.835 470.221 408.41 464.983 399.99 458.411ZM430.747 474.886L418.55 503.092C432.424 508.179 447.218 511.033 462.396 511.324L462.984 480.051C451.86 480.085 440.993 478.286 430.747 474.886ZM462.34 514.324C446.765 514.026 431.587 511.088 417.357 505.85L295.187 788.379C317.695 798.058 341.186 805.889 365.469 811.679L372.558 782.867C372.822 781.794 373.905 781.138 374.978 781.402C376.05 781.666 376.706 782.75 376.442 783.822L369.365 812.588C397.478 819.016 426.631 822.714 456.53 823.388L462.34 514.324ZM292.435 787.184L414.551 504.783C401.135 499.513 388.612 492.182 377.458 483.084L312.359 548.183L312.319 548.223L312.275 548.261L150.528 687.021C171.302 709.075 194.359 728.954 219.322 746.281L239.48 722.7C240.197 721.861 241.46 721.762 242.3 722.48C243.139 723.197 243.238 724.46 242.52 725.299L222.636 748.559C244.55 763.471 267.899 776.43 292.435 787.184Z" fill="#ECD2C5"/>
</svg>
