<svg width="115" height="92" viewBox="0 0 115 92" fill="none" xmlns="http://www.w3.org/2000/svg">
<path d="M13.8137 60.9199H12.0992C13.9962 62.7843 15.8541 64.6097 17.8294 66.5523C17.4904 66.8848 17.2427 67.126 16.7863 67.5693C14.5568 65.3007 12.4121 63.1168 10.2543 60.9199H8.22694C10.7759 63.4623 13.2661 65.9526 15.652 68.332C13.4943 70.4963 11.3039 72.6867 8.96359 75.027C6.04961 72.0869 3.07042 69.0817 0.00650545 65.9852C0.00650545 68.5602 0.00650545 71.0178 0.00650545 73.4689L0 78.6711C0 81.1679 0 83.5929 0 86.2787C3.1617 83.1105 6.15391 80.1118 9.08092 77.1782C11.3495 79.4338 13.5399 81.6242 15.8607 83.9319C13.4356 86.3504 10.9388 88.8407 8.39644 91.3766H10.4043C12.5947 89.1667 14.7524 86.9893 16.9428 84.7729C17.2101 85.0662 17.4448 85.327 17.6729 85.5812C15.7368 87.5043 13.8528 89.3753 11.8319 91.3766H13.6442C18.716 86.2918 23.716 81.2656 28.6574 76.3112V75.7702C23.7421 70.8614 18.7942 65.9069 13.8137 60.9199Z" fill="#EF4044"/>
<path d="M42.4712 60.9199H40.7567C42.6537 62.7843 44.5116 64.6097 46.4868 66.5523C46.1479 66.8848 45.9002 67.126 45.4438 67.5693C43.2143 65.3007 41.0696 63.1168 38.9118 60.9199H36.8844C39.4333 63.4623 41.9236 65.9526 44.3095 68.332C42.1518 70.4963 39.9614 72.6867 37.6211 75.027C34.7071 72.0869 31.7279 69.0817 28.664 65.9852C28.664 68.5602 28.664 71.0178 28.664 73.4689L28.6575 78.6711C28.6575 81.1679 28.6575 83.5929 28.6575 86.2787C31.8192 83.1105 34.8114 80.1118 37.7384 77.1782C40.007 79.4338 42.1974 81.6242 44.5181 83.9319C42.0931 86.3504 39.5963 88.8407 37.0539 91.3766H39.0618C41.2521 89.1667 43.4099 86.9893 45.6003 84.7729C45.8676 85.0662 46.1022 85.327 46.3304 85.5812C44.3943 87.5043 42.5103 89.3753 40.4894 91.3766H42.3017C47.3734 86.2918 52.3735 81.2656 57.3149 76.3112V75.7702C52.3996 70.8614 47.4517 65.9069 42.4712 60.9199Z" fill="#EF4044"/>
<path d="M71.1221 60.9199H69.4076C71.3046 62.7843 73.1625 64.6097 75.1377 66.5523C74.7987 66.8848 74.551 67.126 74.0947 67.5693C71.8652 65.3007 69.7205 63.1168 67.5627 60.9199H65.5353C68.0842 63.4623 70.5745 65.9526 72.9604 68.332C70.8026 70.4963 68.6122 72.6867 66.2719 75.027C63.358 72.0869 60.3788 69.0817 57.3149 65.9852C57.3149 68.5602 57.3149 71.0178 57.3149 73.4689L57.3083 78.6711C57.3083 81.1679 57.3083 83.5929 57.3083 86.2787C60.4701 83.1105 63.4623 80.1118 66.3893 77.1782C68.6579 79.4338 70.8483 81.6242 73.169 83.9319C70.744 86.3504 68.2472 88.8407 65.7048 91.3766H67.7126C69.903 89.1667 72.0608 86.9893 74.2512 84.7729C74.5184 85.0662 74.7531 85.327 74.9813 85.5812C73.0451 87.5043 71.1611 89.3753 69.1403 91.3766H70.9526C76.0243 86.2918 81.0243 81.2656 85.9657 76.3112V75.7702C81.0569 70.8614 76.1091 65.9069 71.1221 60.9199Z" fill="#EF4044"/>
<path d="M100.04 60.9199H98.3258C100.223 62.7843 102.081 64.6097 104.056 66.5523C103.717 66.8848 103.469 67.126 103.013 67.5693C100.783 65.3007 98.6387 63.1168 96.4809 60.9199H94.4535C97.0024 63.4623 99.4927 65.9526 101.879 68.332C99.7208 70.4963 97.5305 72.6867 95.1902 75.027C92.2762 72.0869 89.297 69.0817 86.2331 65.9852C86.2331 68.5602 86.2331 71.0178 86.2331 73.4689L86.2266 78.6711C86.2266 81.1679 86.2266 83.5929 86.2266 86.2787C89.3883 83.1105 92.3805 80.1118 95.3075 77.1782C97.5761 79.4338 99.7665 81.6242 102.087 83.9319C99.6622 86.3504 97.1654 88.8407 94.623 91.3766H96.6309C98.8212 89.1667 100.979 86.9893 103.169 84.7729C103.437 85.0662 103.671 85.327 103.899 85.5812C101.963 87.5043 100.079 89.3753 98.0585 91.3766H99.8708C104.943 86.2918 109.943 81.2656 114.884 76.3112V75.7702C109.969 70.8614 105.021 65.9069 100.04 60.9199Z" fill="#EF4044"/>
<path d="M13.8137 30.4634H12.0992C13.9962 32.3278 15.8541 34.1531 17.8294 36.0958C17.4904 36.4282 17.2427 36.6694 16.7863 37.1127C14.5568 34.8441 12.4121 32.6603 10.2543 30.4634H8.22694C10.7759 33.0058 13.2661 35.496 15.652 37.8754C13.4943 40.0397 11.3039 42.2301 8.96359 44.5704C6.04961 41.6304 3.07042 38.6251 0.00650545 35.5286C0.00650545 38.1036 0.00650545 40.5613 0.00650545 43.0124L0 48.2145C0 50.7113 0 53.1363 0 55.8222C3.1617 52.6539 6.15391 49.6552 9.08092 46.7217C11.3495 48.9773 13.5399 51.1676 15.8607 53.4753C13.4356 55.8939 10.9388 58.3841 8.39644 60.92H10.4043C12.5947 58.7101 14.7524 56.5327 16.9428 54.3163C17.2101 54.6096 17.4448 54.8704 17.6729 55.1246C15.7368 57.0477 13.8528 58.9187 11.8319 60.92H13.6442C18.716 55.8352 23.716 50.8091 28.6574 45.8547V45.3136C23.7421 40.3983 18.7942 35.4504 13.8137 30.4634Z" fill="#EF4044"/>
<path d="M42.4712 30.4634H40.7567C42.6537 32.3278 44.5116 34.1531 46.4868 36.0958C46.1479 36.4282 45.9002 36.6694 45.4438 37.1127C43.2143 34.8441 41.0696 32.6603 38.9118 30.4634H36.8844C39.4333 33.0058 41.9236 35.496 44.3095 37.8754C42.1518 40.0397 39.9614 42.2301 37.6211 44.5704C34.7071 41.6304 31.7279 38.6251 28.664 35.5286C28.664 38.1036 28.664 40.5613 28.664 43.0124L28.6575 48.2145C28.6575 50.7113 28.6575 53.1363 28.6575 55.8222C31.8192 52.6539 34.8114 49.6552 37.7384 46.7217C40.007 48.9773 42.1974 51.1676 44.5181 53.4753C42.0931 55.8939 39.5963 58.3841 37.0539 60.92H39.0618C41.2521 58.7101 43.4099 56.5327 45.6003 54.3163C45.8676 54.6096 46.1022 54.8704 46.3304 55.1246C44.3943 57.0477 42.5103 58.9187 40.4894 60.92H42.3017C47.3734 55.8352 52.3735 50.8091 57.3149 45.8547V45.3136C52.3996 40.3983 47.4517 35.4504 42.4712 30.4634Z" fill="#EF4044"/>
<path d="M71.1221 30.4634H69.4076C71.3046 32.3278 73.1625 34.1531 75.1377 36.0958C74.7987 36.4282 74.551 36.6694 74.0947 37.1127C71.8652 34.8441 69.7205 32.6603 67.5627 30.4634H65.5353C68.0842 33.0058 70.5745 35.496 72.9604 37.8754C70.8026 40.0397 68.6122 42.2301 66.2719 44.5704C63.358 41.6304 60.3788 38.6251 57.3149 35.5286C57.3149 38.1036 57.3149 40.5613 57.3149 43.0124L57.3083 48.2145C57.3083 50.7113 57.3083 53.1363 57.3083 55.8222C60.4701 52.6539 63.4623 49.6552 66.3893 46.7217C68.6579 48.9773 70.8483 51.1676 73.169 53.4753C70.744 55.8939 68.2472 58.3841 65.7048 60.92H67.7126C69.903 58.7101 72.0608 56.5327 74.2512 54.3163C74.5184 54.6096 74.7531 54.8704 74.9813 55.1246C73.0451 57.0477 71.1611 58.9187 69.1403 60.92H70.9526C76.0243 55.8352 81.0243 50.8091 85.9657 45.8547V45.3136C81.0569 40.3983 76.1091 35.4504 71.1221 30.4634Z" fill="#EF4044"/>
<path d="M100.04 30.4634H98.3258C100.223 32.3278 102.081 34.1531 104.056 36.0958C103.717 36.4282 103.469 36.6694 103.013 37.1127C100.783 34.8441 98.6387 32.6603 96.4809 30.4634H94.4535C97.0024 33.0058 99.4927 35.496 101.879 37.8754C99.7208 40.0397 97.5305 42.2301 95.1902 44.5704C92.2762 41.6304 89.297 38.6251 86.2331 35.5286C86.2331 38.1036 86.2331 40.5613 86.2331 43.0124L86.2266 48.2145C86.2266 50.7113 86.2266 53.1363 86.2266 55.8222C89.3883 52.6539 92.3805 49.6552 95.3075 46.7217C97.5761 48.9773 99.7665 51.1676 102.087 53.4753C99.6622 55.8939 97.1654 58.3841 94.623 60.92H96.6309C98.8212 58.7101 100.979 56.5327 103.169 54.3163C103.437 54.6096 103.671 54.8704 103.899 55.1246C101.963 57.0477 100.079 58.9187 98.0585 60.92H99.8708C104.943 55.8352 109.943 50.8091 114.884 45.8547V45.3136C109.969 40.3983 105.021 35.4504 100.04 30.4634Z" fill="#EF4044"/>
<path d="M13.8137 0H12.0992C13.9962 1.86443 15.8541 3.68973 17.8294 5.63238C17.4904 5.96485 17.2427 6.20605 16.7863 6.64934C14.5568 4.38074 12.4121 2.19689 10.2543 0H8.22694C10.7759 2.5424 13.2661 5.03264 15.652 7.41207C13.4943 9.57637 11.3039 11.7667 8.96359 14.107C6.04961 11.167 3.07042 8.16175 0.00650545 5.06524C0.00650545 7.64023 0.00650545 10.0979 0.00650545 12.549L0 17.7512C0 20.2479 0 22.673 0 25.3588C3.1617 22.1906 6.15391 19.1919 9.08092 16.2583C11.3495 18.5139 13.5399 20.7043 15.8607 23.012C13.4356 25.4305 10.9388 27.9208 8.39644 30.4566H10.4043C12.5947 28.2467 14.7524 26.0694 16.9428 23.8529C17.2101 24.1463 17.4448 24.407 17.6729 24.6613C15.7368 26.5844 13.8528 28.4553 11.8319 30.4566H13.6442C18.716 25.3718 23.716 20.3457 28.6574 15.3913V14.8502C23.7421 9.94143 18.7942 4.98701 13.8137 0Z" fill="#EF4044"/>
<path d="M42.4712 0H40.7567C42.6537 1.86443 44.5116 3.68973 46.4868 5.63238C46.1479 5.96485 45.9002 6.20605 45.4438 6.64934C43.2143 4.38074 41.0696 2.19689 38.9118 0H36.8844C39.4333 2.5424 41.9236 5.03264 44.3095 7.41207C42.1518 9.57637 39.9614 11.7667 37.6211 14.107C34.7071 11.167 31.7279 8.16175 28.664 5.06524C28.664 7.64023 28.664 10.0979 28.664 12.549L28.6575 17.7512C28.6575 20.2479 28.6575 22.673 28.6575 25.3588C31.8192 22.1906 34.8114 19.1919 37.7384 16.2583C40.007 18.5139 42.1974 20.7043 44.5181 23.012C42.0931 25.4305 39.5963 27.9208 37.0539 30.4566H39.0618C41.2521 28.2467 43.4099 26.0694 45.6003 23.8529C45.8676 24.1463 46.1022 24.407 46.3304 24.6613C44.3943 26.5844 42.5103 28.4553 40.4894 30.4566H42.3017C47.3734 25.3718 52.3735 20.3457 57.3149 15.3913V14.8502C52.3996 9.94143 47.4517 4.98701 42.4712 0Z" fill="#EF4044"/>
<path d="M71.1221 0H69.4076C71.3046 1.86443 73.1625 3.68973 75.1377 5.63238C74.7987 5.96485 74.551 6.20605 74.0947 6.64934C71.8652 4.38074 69.7205 2.19689 67.5627 0H65.5353C68.0842 2.5424 70.5745 5.03264 72.9604 7.41207C70.8026 9.57637 68.6122 11.7667 66.2719 14.107C63.358 11.167 60.3788 8.16175 57.3149 5.06524C57.3149 7.64023 57.3149 10.0979 57.3149 12.549L57.3083 17.7512C57.3083 20.2479 57.3083 22.673 57.3083 25.3588C60.4701 22.1906 63.4623 19.1919 66.3893 16.2583C68.6579 18.5139 70.8483 20.7043 73.169 23.012C70.744 25.4305 68.2472 27.9208 65.7048 30.4566H67.7126C69.903 28.2467 72.0608 26.0694 74.2512 23.8529C74.5184 24.1463 74.7531 24.407 74.9813 24.6613C73.0451 26.5844 71.1611 28.4553 69.1403 30.4566H70.9526C76.0243 25.3718 81.0243 20.3457 85.9657 15.3913V14.8502C81.0569 9.94143 76.1091 4.98701 71.1221 0Z" fill="#EF4044"/>
<path d="M100.04 0H98.3258C100.223 1.86443 102.081 3.68973 104.056 5.63238C103.717 5.96485 103.469 6.20605 103.013 6.64934C100.783 4.38074 98.6387 2.19689 96.4809 0H94.4535C97.0024 2.5424 99.4927 5.03264 101.879 7.41207C99.7208 9.57637 97.5305 11.7667 95.1902 14.107C92.2762 11.167 89.297 8.16175 86.2331 5.06524C86.2331 7.64023 86.2331 10.0979 86.2331 12.549L86.2266 17.7512C86.2266 20.2479 86.2266 22.673 86.2266 25.3588C89.3883 22.1906 92.3805 19.1919 95.3075 16.2583C97.5761 18.5139 99.7665 20.7043 102.087 23.012C99.6622 25.4305 97.1654 27.9208 94.623 30.4566H96.6309C98.8212 28.2467 100.979 26.0694 103.169 23.8529C103.437 24.1463 103.671 24.407 103.899 24.6613C101.963 26.5844 100.079 28.4553 98.0585 30.4566H99.8708C104.943 25.3718 109.943 20.3457 114.884 15.3913V14.8502C109.969 9.94143 105.021 4.98701 100.04 0Z" fill="#EF4044"/>
</svg>
