<svg xmlns="http://www.w3.org/2000/svg" viewBox="0 0 540 540"><defs><style>.cls-1{fill:#fff;}</style></defs><g id="Layer_2" data-name="Layer 2"><g id="Layer_1-2" data-name="Layer 1"><path class="cls-1" d="M450,178.9A40,40,0,0,0,410,140H130a40,40,0,0,0-40,38.6,8.18,8.18,0,0,0,0,1.4V360a40,40,0,0,0,40,40H410a40,40,0,0,0,40-40V180a6.73,6.73,0,0,0,0-1.1ZM130,160H410a20,20,0,0,1,20,15.4L270,278.1,110.7,175.4A20,20,0,0,1,130,160ZM410,380H130a20,20,0,0,1-20-20V198.8l154.6,100a10,10,0,0,0,10.8,0L430,198.8V360a20,20,0,0,1-20,20Z"/><path class="cls-1" d="M270,0A270,270,0,1,0,405,36.17,270,270,0,0,0,270,0Zm0,520a250,250,0,1,1,176.78-73.22A250,250,0,0,1,270,520Z"/></g></g></svg>