<svg width="93" height="150" viewBox="0 0 93 150" fill="none" xmlns="http://www.w3.org/2000/svg">
<path d="M49.7493 90.5078H42.6577V149.29H49.7493V90.5078Z" fill="#EF4044"/>
<path d="M92.4072 25.6646C92.4072 51.179 71.7245 71.8681 46.2037 71.8681C20.6828 71.8681 0 51.1854 0 25.6646" fill="#EF4044"/>
<path d="M90.5003 1.79173L88.1201 0L45.1267 57.1125L47.5068 58.9042L90.5003 1.79173Z" fill="#EF4044"/>
<path d="M61.272 48.3589C64.1871 45.1315 64.3633 40.5398 61.6656 38.1031C58.9678 35.6663 54.4176 36.3073 51.5025 39.5347C48.5873 42.7621 48.4111 47.3538 51.1089 49.7906C53.8066 52.2273 58.3568 51.5864 61.272 48.3589Z" fill="white"/>
<path d="M71.0478 36.668C73.963 33.4406 74.1392 28.8489 71.4414 26.4122C68.7437 23.9754 64.1935 24.6164 61.2783 27.8438C58.3632 31.0712 58.187 35.6629 60.8847 38.0996C63.5825 40.5364 68.1327 39.8954 71.0478 36.668Z" fill="white"/>
<path d="M55.9118 71.8618H37.2661V90.5075H55.9118V71.8618Z" fill="#EF4044"/>
</svg>
