<svg xmlns="http://www.w3.org/2000/svg" viewBox="0 0 540 540"><defs><style>.cls-1,.cls-2{fill:#fff;}.cls-1{stroke:#fff;stroke-miterlimit:10;stroke-width:5px;}</style></defs><g id="Layer_2" data-name="Layer 2"><g id="Layer_1-2" data-name="Layer 1"><path class="cls-1" d="M271,112.16c-94.2,0-168,34.2-168,77.84v18.14c0,15.62,11.68,28.33,26,28.33h35.28c14.36,0,26-12.71,26-28.33V185H351.63v23.1c0,15.62,11.68,28.33,26,28.33H413c14.36,0,26-12.71,26-28.33V190c0-43.65-73.8-77.84-168-77.84Zm154.55,96c0,8.2-5.65,14.89-12.6,14.89H377.67c-6.94,0-12.6-6.68-12.6-14.89V178.33a6.71,6.71,0,0,0-6.71-6.72H183.64a6.72,6.72,0,0,0-6.72,6.72v29.82c0,8.2-5.65,14.89-12.6,14.89H129c-6.94,0-12.6-6.68-12.6-14.89V190c0-34.91,70.78-64.41,154.56-64.41S425.55,155.1,425.55,190Z"/><path class="cls-1" d="M377.67,263.35a52.7,52.7,0,0,1-51.51-40.79,6.74,6.74,0,0,0-6.55-5.18H222.38a6.72,6.72,0,0,0-6.54,5.18,52.71,52.71,0,0,1-51.52,40.79A61.38,61.38,0,0,0,103,324.67v76.44a6.72,6.72,0,0,0,6.72,6.72H432.27a6.72,6.72,0,0,0,6.72-6.72V324.67a61.38,61.38,0,0,0-61.31-61.32Zm47.88,131H116.44V324.67a47.94,47.94,0,0,1,47.88-47.88,66.07,66.07,0,0,0,63.16-46h87a66.1,66.1,0,0,0,63.17,46,47.94,47.94,0,0,1,47.88,47.88Z"/><path class="cls-1" d="M271,262.51A60.48,60.48,0,1,0,331.47,323,60.55,60.55,0,0,0,271,262.51ZM271,370a47,47,0,1,1,47-47A47.09,47.09,0,0,1,271,370Z"/><path class="cls-2" d="M270,0A270,270,0,1,0,405,36.17,270,270,0,0,0,270,0Zm0,520a250,250,0,1,1,176.78-73.22A250,250,0,0,1,270,520Z"/></g></g></svg>