<svg xmlns="http://www.w3.org/2000/svg" viewBox="0 0 613.27 444.52"><defs><style>.cls-1{fill:#fff;stroke:#fff;stroke-miterlimit:10;stroke-width:6px;}</style></defs><g id="Layer_2" data-name="Layer 2"><g id="Layer_1-2" data-name="Layer 1"><path class="cls-1" d="M610.23,68.61A67.46,67.46,0,0,0,542.77,3H70.52A67.48,67.48,0,0,0,3.05,68.11a13.18,13.18,0,0,0,0,2.35V374.05a67.46,67.46,0,0,0,67.47,67.47H542.77a67.46,67.46,0,0,0,67.46-67.47V70.46a11.43,11.43,0,0,0,0-1.85ZM70.52,36.73H542.77a33.72,33.72,0,0,1,33.73,26L306.64,235.92,38,62.7a33.75,33.75,0,0,1,32.55-26Zm472.25,371H70.52a33.73,33.73,0,0,1-33.73-33.73V102.17L297.53,270.83a16.86,16.86,0,0,0,18.21,0L576.49,102.17V374.05a33.73,33.73,0,0,1-33.73,33.73Z"/></g></g></svg>