<svg xmlns="http://www.w3.org/2000/svg" viewBox="0 0 476 475.71"><defs><style>.cls-1{fill:#fff;fill-rule:evenodd;}</style></defs><g id="Layer_2" data-name="Layer 2"><g id="Layer_1-2" data-name="Layer 1"><path class="cls-1" d="M1,146.85C-9.72,55.9,70.54,4.17,77.67,2.4,83,.61,91.94-10.09,127.6,34.5c33.89,44.59,58.86,80.26,37.46,99.88C141.87,154,108,179,125.82,212.85c14.27,30.32,107,121.28,135.55,135.54,35.67,17.84,58.85-16.05,78.47-37.45,19.62-23.19,57.07,1.79,101.66,35.67,44.58,35.67,33.88,44.59,32.1,51.72-1.79,5.35-53.5,85.61-146.25,76.69C231,464.32,9.89,243.17,1,146.86Z"/></g></g></svg>