<svg width="163" height="48" viewBox="0 0 163 48" fill="none" xmlns="http://www.w3.org/2000/svg">
<path d="M59.3448 41.4868H61.9653C62.603 41.4868 63.174 41.6105 63.6689 41.858C64.167 42.1054 64.5509 42.4576 64.8237 42.9113C65.0966 43.3649 65.2362 43.8884 65.2362 44.4817C65.2362 45.0749 65.0998 45.5984 64.8237 46.0521C64.5509 46.5057 64.1639 46.8579 63.6689 47.1053C63.1709 47.3528 62.603 47.4765 61.9653 47.4765H59.3448V41.4868ZM61.9146 46.5406C62.3555 46.5406 62.7394 46.455 63.0757 46.2868C63.4088 46.1187 63.6658 45.8776 63.8466 45.5666C64.0274 45.2557 64.1163 44.8941 64.1163 44.4848C64.1163 44.0724 64.0274 43.7139 63.8466 43.403C63.6658 43.0921 63.4088 42.851 63.0757 42.6829C62.7426 42.5147 62.3555 42.4291 61.9146 42.4291H60.4584V46.5406H61.9146Z" fill="#EEE4DB"/>
<path d="M71.1719 46.8706C70.7087 46.4042 70.4771 45.738 70.4771 44.8719V41.4868H71.5907V44.8275C71.5907 46.0045 72.0983 46.5914 73.1135 46.5914C74.1223 46.5914 74.6299 46.0045 74.6299 44.8275V41.4868H75.7244V44.8687C75.7244 45.738 75.496 46.4042 75.036 46.8674C74.576 47.3337 73.932 47.5653 73.104 47.5653C72.2791 47.5685 71.6319 47.3337 71.1719 46.8706Z" fill="#EEE4DB"/>
<path d="M86.4285 44.9068C86.622 45.1606 86.7203 45.4747 86.7203 45.8522C86.7203 46.3725 86.5205 46.7722 86.1207 47.0546C85.721 47.3369 85.1372 47.4797 84.3727 47.4797H81.3937V41.4868H84.2014C84.9088 41.4868 85.4545 41.6264 85.8384 41.9024C86.2222 42.1784 86.4126 42.5591 86.4126 43.0445C86.4126 43.3427 86.3428 43.6029 86.2064 43.8313C86.07 44.0597 85.8796 44.2374 85.6417 44.3611C85.9716 44.4721 86.2349 44.653 86.4285 44.9068ZM82.5072 42.3593V44.0121H84.084C84.471 44.0121 84.7692 43.9423 84.9786 43.8027C85.188 43.6631 85.2927 43.4601 85.2927 43.1904C85.2927 42.9176 85.188 42.7082 84.9786 42.5687C84.7692 42.4291 84.471 42.3593 84.084 42.3593H82.5072ZM85.5973 45.7443C85.5973 45.1669 85.1658 44.8782 84.3029 44.8782H82.5041V46.6072H84.3029C85.169 46.6072 85.5973 46.3185 85.5973 45.7443Z" fill="#EEE4DB"/>
<path d="M95.9079 46.0933H92.9099L92.3198 47.4797H91.1713L93.868 41.4868H94.9625L97.6686 47.4797H96.5043L95.9079 46.0933ZM95.5399 45.2209L94.4105 42.6004L93.2874 45.2209H95.5399Z" fill="#EEE4DB"/>
<path d="M102.545 41.4868H103.658V47.4797H102.545V41.4868Z" fill="#EEE4DB"/>
<path d="M0 32.331V0.555176H16.313C21.9347 0.555176 25.5989 3.96245 25.5989 9.62853C25.5989 15.2502 21.9347 18.8288 16.313 18.8288H10.6913C8.64824 18.8288 6.56074 19.0858 4.64137 20.1073V32.331H0ZM16.3162 14.143C19.3396 14.143 21.002 12.6963 21.002 9.62853C21.002 6.43382 19.384 5.19972 16.3162 5.19972H4.64455V15.4215C6.56074 14.3143 8.60701 14.143 10.6945 14.143H16.3162Z" fill="#EEE4DB"/>
<path d="M37.5275 32.331V0.555176H42.1721V27.6896H59.808V32.331H37.5275Z" fill="#EEE4DB"/>
<path d="M80.1945 0H85.3054L100.597 32.331H95.4003L93.3128 27.6896H83.643C77.85 27.6896 74.741 29.5201 74.0177 30.8431L73.2087 32.3341H68.1834L81.9426 3.92122L80.1945 0ZM91.2253 23.0038L84.2807 9.5873L77.2536 24.7931C78.4052 23.8128 81.0035 23.0038 85.3467 23.0038H91.2253Z" fill="#EEE4DB"/>
<path d="M142.598 0H147.709L163 32.331H157.803L155.716 27.6896H146.046C140.253 27.6896 137.144 29.5201 136.421 30.8431L135.612 32.3341H130.587L144.346 3.92122L142.598 0ZM153.632 23.0038L146.687 9.5873L139.66 24.7931C140.811 23.8128 143.41 23.0038 147.753 23.0038H153.632Z" fill="#EEE4DB"/>
<path d="M130.587 0.555156L124.939 0.504395L115.441 13.8892L105.946 0.504395L100.299 0.555156L113.106 18.5464V32.3309H117.735V18.6099L130.587 0.555156Z" fill="#EEE4DB"/>
</svg>
