<svg version="1.0" xmlns="http://www.w3.org/2000/svg"
 width="1497.000000pt" height="525.000000pt" viewBox="0 0 1497.000000 525.000000"
 preserveAspectRatio="xMidYMid meet" id="wave" class="absolute bottom-0 left-0 z-0">

<g transform="translate(0.000000,525.000000) scale(0.100000,-0.100000)"
fill="#F8E0D4" stroke="none">
<path d="M3160 5243 c-168 -19 -376 -85 -551 -174 -126 -64 -350 -209 -408
-263 -20 -19 -74 -67 -121 -107 -47 -40 -233 -220 -415 -399 -181 -179 -395
-383 -475 -454 -138 -123 -422 -356 -434 -356 -7 0 -260 -180 -266 -190 -13
-20 -315 -202 -437 -264 l-53 -26 0 -1505 0 -1505 7485 0 7485 0 0 1508 0
1509 -22 10 c-49 24 -60 23 -101 -7 -23 -16 -53 -31 -67 -34 -14 -2 -29 -5
-35 -7 -17 -5 -85 11 -85 21 0 5 -9 11 -19 15 -20 6 -86 127 -95 175 -1 3 -5
11 -9 18 -5 6 -6 12 -3 12 9 0 -46 144 -61 160 -7 8 -21 24 -31 35 -37 43
-124 69 -227 67 -44 -1 -92 -5 -105 -8 -34 -8 -59 -12 -98 -18 -18 -3 -37 -8
-42 -11 -6 -3 -20 -8 -32 -11 -46 -10 -72 -20 -185 -74 -45 -22 -87 -47 -93
-57 -8 -14 -13 -15 -17 -5 -4 10 -9 8 -19 -6 -9 -13 -43 -27 -108 -42 -135
-31 -170 -16 -241 104 -75 128 -72 374 7 518 48 87 97 119 190 126 78 5 108
20 108 56 0 76 -158 139 -350 139 -146 0 -240 -26 -420 -115 -219 -110 -304
-177 -680 -542 -205 -200 -276 -261 -373 -323 -154 -99 -298 -143 -473 -143
-243 0 -439 91 -568 263 -68 92 -92 140 -117 234 -54 213 5 436 156 589 122
123 271 177 431 155 217 -31 373 -163 434 -368 22 -77 37 -93 88 -93 57 0 103
59 148 190 29 83 26 260 -5 360 -31 100 -108 248 -176 338 -30 40 -55 77 -55
81 0 13 -181 184 -230 218 -220 150 -478 224 -740 210 -207 -11 -421 -71 -631
-178 -126 -64 -350 -209 -408 -263 -20 -19 -74 -67 -121 -107 -47 -40 -233
-220 -415 -399 -181 -179 -395 -383 -475 -454 -138 -123 -422 -356 -434 -356
-7 0 -260 -180 -266 -190 -9 -14 -219 -143 -355 -219 -71 -40 -135 -77 -140
-81 -6 -5 -22 -11 -35 -13 -14 -3 -29 -6 -35 -8 -17 -5 -85 11 -85 21 0 5 -9
11 -19 15 -22 7 -105 166 -89 171 2 0 -3 8 -11 17 -7 10 -11 17 -7 17 9 0 -45
143 -61 160 -7 8 -21 24 -31 35 -37 43 -124 69 -227 67 -44 -1 -92 -5 -105 -8
-34 -8 -59 -12 -98 -18 -18 -3 -37 -8 -42 -11 -6 -3 -20 -8 -32 -11 -46 -10
-72 -20 -185 -74 -45 -22 -87 -47 -93 -57 -8 -14 -13 -15 -17 -5 -4 10 -9 8
-19 -6 -9 -13 -43 -27 -108 -42 -135 -31 -170 -16 -241 104 -75 128 -72 374 7
518 48 87 97 119 190 126 78 5 108 20 108 56 0 76 -158 139 -350 139 -146 0
-240 -26 -420 -115 -219 -110 -304 -177 -680 -542 -205 -200 -276 -261 -373
-323 -154 -99 -298 -143 -473 -143 -243 0 -439 91 -568 263 -68 92 -92 140
-117 234 -54 213 5 436 156 589 122 123 271 177 431 155 217 -31 373 -163 434
-368 22 -77 37 -93 88 -93 57 0 103 59 148 190 29 83 26 260 -5 360 -31 100
-108 248 -176 338 -30 40 -55 77 -55 81 0 13 -181 184 -230 218 -161 110 -338
178 -531 203 -72 9 -219 11 -289 3z"/>
</g>
</svg>