<svg width="756" height="537" viewBox="0 0 756 537" fill="none" xmlns="http://www.w3.org/2000/svg">
<path d="M744.204 183.447C748.312 176.741 759.216 182.393 755.079 189.148L749.555 537H0V221.934C48.1619 197.912 91.1569 164.631 130.41 128.065C185.047 77.1691 236.52 8.10744 316.682 0.538915C353.444 -2.93327 388.902 10.4666 413.776 38.0214C437.437 64.2363 454.425 99.7001 436.608 131.971C431.422 141.365 420.516 142.107 418.489 131.971C414.815 113.595 400.292 99.4404 382.427 94.3511C363.752 89.0326 344.78 94.8465 331.558 108.938C308.701 133.298 309.419 172.411 333.193 195.889C354.112 216.55 386.81 221.493 413.8 210.947C450.799 196.491 475.239 160.831 505.252 136.458C534.514 112.696 571.797 93.2861 608.494 111.461C616.128 115.242 613.665 125.802 604.889 124.427C588.107 121.797 580.196 138.566 577.893 152.503C575.723 165.626 576.869 182.524 585.599 193.294C599.622 210.598 620.292 188.323 631.539 178.626C643.516 168.299 657.548 160.491 672.842 156.3C683.455 153.391 692.416 153.644 700.24 162.092C706.854 169.238 710.604 178.436 716.95 185.758C724.712 194.715 737.686 194.088 744.204 183.447Z" fill="#0F1334"/>
</svg>
