<svg xmlns="http://www.w3.org/2000/svg" viewBox="0 0 544.52 546.96"><defs><style>.cls-1,.cls-2{fill:#fff;}.cls-1{fill-rule:evenodd;}</style></defs><g id="Layer_2" data-name="Layer 2"><g id="Layer_1-2" data-name="Layer 1"><path class="cls-1" d="M216,157.66c-5.08-11.28-10.42-11.5-15.25-11.7-3.95-.17-8.47-.16-13-.16a24.87,24.87,0,0,0-18.06,8.48c-6.21,6.78-23.72,23.16-23.72,56.49s24.28,65.54,27.67,70.06,46.86,75.1,115.72,102.26c57.22,22.56,68.87,18.07,81.29,16.94s40.08-16.38,45.72-32.2,5.65-29.37,3.95-32.21-6.21-4.51-13-7.9-40.08-19.78-46.29-22-10.73-3.38-15.25,3.4-17.49,22-21.44,26.54-7.9,5.1-14.68,1.71-28.59-10.55-54.48-33.62c-20.13-18-33.73-40.13-37.68-46.91s-.43-10.45,3-13.83c3-3,6.78-7.9,10.17-11.86s4.5-6.78,6.76-11.3,1.13-8.47-.56-11.86S222,171.06,216,157.66Z"/><path class="cls-2" d="M465.18,79.48A269.44,269.44,0,0,0,273.4,0C124,0,2.34,121.58,2.28,271A270.52,270.52,0,0,0,38.46,406.51L0,547l143.72-37.69a270.81,270.81,0,0,0,129.56,33h.12c149.42,0,271.05-121.6,271.12-271A269.44,269.44,0,0,0,465.18,79.48Zm-191.78,417h-.09a225,225,0,0,1-114.69-31.41l-8.24-4.88L65.09,482.57l22.77-83.13-5.36-8.52A224.64,224.64,0,0,1,48.05,271C48.1,146.83,149.18,45.78,273.48,45.78A225.34,225.34,0,0,1,498.74,271.22C498.68,395.43,397.6,496.49,273.4,496.49Z"/></g></g></svg>